<svg width="32" height="40" viewBox="0 0 28 40" fill="none" xmlns="http://www.w3.org/2000/svg"><rect x="2.75" y="2.75" width="22.5" height="34.5" rx="2.25" fill="#FFFFFF" stroke="#B8B8B8" stroke-width="1.5" stroke-linejoin="round"></rect><rect x="5.75" y="27.75" width="16.5" height="6.5" rx="2.25" fill="#FFFFFF" stroke="#B8B8B8" stroke-width="1.5" stroke-linejoin="round"></rect><path class="icon-selected" d="M14.0002 8.33337C10.3202 8.33337 7.3335 11.32 7.3335 15C7.3335 18.68 10.3202 21.6667 14.0002 21.6667C17.6802 21.6667 20.6668 18.68 20.6668 15C20.6668 11.32 17.6802 8.33337 14.0002 8.33337ZM12.6668 18.3334L9.3335 15L10.2735 14.06L12.6668 16.4467L17.7268 11.3867L18.6668 12.3334L12.6668 18.3334Z" fill="transparent"></path><path class="icon-disabled" d="M18.96 11.4599L17.54 10.0399L14 13.5899L10.46 10.0399L9.04004 11.4599L12.59 14.9999L9.04004 18.5399L10.46 19.9599L14 16.4099L17.54 19.9599L18.96 18.5399L15.41 14.9999L18.96 11.4599Z" fill="transparent"></path></svg>